<?xml version="1.0" standalone="no"?>
<!DOCTYPE svg PUBLIC "-//W3C//DTD SVG 1.1//EN" "http://www.w3.org/Graphics/SVG/1.1/DTD/svg11.dtd" >
<svg xmlns="http://www.w3.org/2000/svg" xmlns:xlink="http://www.w3.org/1999/xlink" version="1.1" viewBox="0 -200 1000 1000">
  <g transform="matrix(1 0 0 -1 0 800)">
   <path fill="#818a91"
d="M400 346c0 -31 -1 -48 -1 -61c0 -137 24 -207 66 -250l-7 -9c-13 14 -55 19 -90 19c-25 0 -64 -1 -84 -22l-7 9c12 10 23 28 32 48c21 49 34 119 34 211v55h-61c-137 0 -207 -25 -250 -67l-9 7c14 13 19 55 19 90c0 25 -1 64 -22 84l9 7c10 -12 28 -21 48 -30
c49 -21 119 -36 211 -36h55v22v40c0 137 -24 207 -66 250l7 9c13 -14 55 -19 90 -19c25 0 64 1 84 22l7 -9c-12 -10 -23 -28 -32 -48c-21 -49 -34 -119 -34 -211v-57c21 0 48 1 61 1c137 0 207 25 250 67l9 -7c-14 -13 -19 -55 -19 -90c0 -25 1 -64 22 -84l-9 -7
c-10 12 -28 23 -48 32c-49 21 -119 34 -211 34h-54zM121 540c0 17 6 32 18 44c11 12 26 18 43 18s32 -6 44 -18s18 -27 18 -44s-6 -32 -18 -44c-12 -11 -27 -17 -44 -17s-32 6 -43 17c-12 12 -18 27 -18 44zM496 540c0 17 6 32 17 44c12 12 27 18 44 18s32 -6 44 -18
s18 -27 18 -44s-6 -32 -18 -44c-12 -11 -27 -17 -44 -17s-32 6 -44 17c-11 12 -17 27 -17 44zM121 195c0 17 6 32 18 44c11 12 26 18 43 18s32 -6 44 -18s18 -27 18 -44s-6 -32 -18 -43c-12 -12 -27 -18 -44 -18s-32 6 -43 18c-12 11 -18 26 -18 43zM507 195
c0 17 6 32 18 44c11 12 26 18 43 18s32 -6 44 -18s18 -27 18 -44s-6 -32 -18 -43c-12 -12 -27 -18 -44 -18s-32 6 -43 18c-12 11 -18 26 -18 43zM35 282z" />
  </g>

</svg>
